<?xml version="1.0" encoding="UTF-8" standalone="no"?>
<svg width="335px" height="97px" viewBox="0 0 335 97" version="1.1" xmlns="http://www.w3.org/2000/svg" xmlns:xlink="http://www.w3.org/1999/xlink">
    <!-- Generator: Sketch 39.1 (31720) - http://www.bohemiancoding.com/sketch -->
    <title>Logo-onex-Tipo</title>
    <desc>Created with Sketch.</desc>
    <defs>
        <polygon id="path-1" points="190.254 96.94 0 96.94 0 48.8855 0 0.831 190.254 0.831 190.254 96.94"></polygon>
    </defs>
    <g id="Page-1" stroke="none" stroke-width="1" fill="none" fill-rule="evenodd">
        <g id="Artboard">
            <g id="Logo-onex-Tipo">
                <g id="Group-4">
                    <mask id="mask-2" fill="white">
                        <use xlink:href="#path-1"></use>
                    </mask>
                    <g id="Clip-2"></g>
                    <path d="M84.774,48.672 C84.774,38.907 81.252,30.681 74.211,23.994 C67.17,17.307 58.508,13.963 48.223,13.963 C38.449,13.963 30.076,17.365 23.105,24.168 C16.131,30.971 12.647,39.139 12.647,48.672 C12.647,58.344 16.225,66.526 23.383,73.212 C30.54,79.899 39.305,83.241 49.682,83.241 C59.225,83.241 67.459,79.829 74.385,73.003 C81.309,66.176 84.774,58.067 84.774,48.672 M0,48.116 C0,35.34 4.818,24.393 14.454,15.275 C24.088,6.154 35.67,1.594 49.197,1.594 C62.399,1.594 73.771,6.189 83.315,15.378 C92.857,24.567 97.629,35.479 97.629,48.116 C97.629,61.495 92.915,72.801 83.488,82.036 C74.061,91.272 62.492,95.887 48.78,95.887 C35.252,95.887 23.741,91.237 14.245,81.932 C4.748,72.628 0,61.356 0,48.116" id="Fill-1" fill="#FFFFFF" mask="url(#mask-2)"></path>
                    <polyline id="Fill-3" fill="#FFFFFF" mask="url(#mask-2)" points="112.708 0.831 178.164 68.112 178.164 4.374 190.254 4.374 190.254 97.001 124.797 30.016 124.797 92.901 112.708 92.901 112.708 0.831"></polyline>
                </g>
                <polyline id="Fill-5" fill="#FFFFFF" points="207.348 4.374 256.406 4.374 256.406 16.465 219.299 16.465 219.299 38.561 256.406 38.561 256.406 50.514 219.299 50.514 219.299 80.948 256.406 80.948 256.406 92.901 207.348 92.901 207.348 4.374"></polyline>
                <polyline id="Fill-6" fill="#FFFFFF" points="267.246 4.374 280.561 4.374 300.35 36.653 319.908 4.374 333.396 4.374 307.091 47.79 334.162 92.901 320.766 92.901 300.367 58.889 279.76 92.901 266.272 92.901 293.63 47.746 267.246 4.374"></polyline>
            </g>
        </g>
    </g>
</svg>