<?xml version="1.0" standalone="no"?>
<!DOCTYPE svg PUBLIC "-//W3C//DTD SVG 1.1//EN" "http://www.w3.org/Graphics/SVG/1.1/DTD/svg11.dtd">
<svg xmlns="http://www.w3.org/2000/svg">
<metadata>Copyright (C) 2016 by original authors @ fontello.com</metadata>
<defs>
<font id="onex-webicons" horiz-adv-x="1000" >
<font-face font-family="onex-webicons" font-weight="400" font-stretch="normal" units-per-em="1000" ascent="850" descent="-150" />
<missing-glyph horiz-adv-x="1000" />
<glyph glyph-name="accomodations" unicode="&#xe800;" d="M134 281l961 0 0 135c0 36-1 71 2 106 3 34 23 53 57 54 34 2 55-15 63-46 3-9 3-20 3-29l0-562c0-11 0-20-1-31-7-32-36-53-67-49-32 5-53 22-55 57-2 43 0 88 0 134l-228 0-694 0c-30 0-44-6-40-40 4-28 2-55 0-83 0-43-26-71-63-69-37 1-60 27-60 70l0 281c0 189-1 380 2 569 0 21 11 49 26 61 14 11 46 14 62 5 17-11 32-37 32-57 3-85 1-171 1-257-1-83-1-165-1-249l0 0z m900 55l-552 0 0 254c12 0 26 2 40 2l389 0c88 0 123-36 123-125l0-131 0 0z m-612 240c0-60-50-107-110-106-60 0-104 49-104 109 0 60 49 108 107 106 59 0 107-49 107-109l0 0z m3-144l0-94-213 0c-17 69 2 94 70 94l143 0 0 0z" horiz-adv-x="1231" />

<glyph glyph-name="design" unicode="&#xe802;" d="M1076 842l-964 0c-57 0-104-47-104-104l0-580c0-57 47-104 104-104l375 0 0-124-171 0c-7 0-12-5-12-12l0-44c0-7 5-12 12-12l556 0c7 0 12 5 12 12l0 44c0 7-5 12-12 12l-171 0 0 124 375 0c57 0 104 47 104 104l0 580c0 57-47 104-104 104l0 0z m8-620c0-57-47-104-104-104l-772 0c-57 0-104 47-104 104l0 451c0 57 47 104 104 104l772 0c57 0 104-47 104-104l0-451 0 0z m-168 512l-644 0c-57 0-104-47-104-104l0-365c0-58 47-104 104-104l644 0c57 0 104 46 104 104l0 365c0 57-47 104-104 104l0 0z m-239-407c-20-17-40-21-56-21-18 0-33 7-37 8-64 27-57 100-44 135 1 4 13 48-19 65-12 7-21 8-30 5-16-5-26-24-28-32 0 0 0 0 0-1-2-4-38-83-115-79-69 4-88 76-88 114 0 10 8 18 19 18 10 0 18-8 18-18 0-3 2-74 54-76 49-3 77 52 78 56 3 6 18 40 50 52 13 5 34 8 61-7 48-27 44-83 36-109 0 0 0 0 0-2 0 0-7-18-7-40 0-24 11-40 31-49l1 0c2 0 28-13 54 8 8 7 18 5 26-1 4-8 4-19-4-26l0 0z m247 164l-180-137c-11-8-25-7-33 4-8 11-7 25 4 33l180 138c10 8 25 6 33-4 9-10 7-26-4-34l0 0z" horiz-adv-x="1187" />

<glyph glyph-name="digital" unicode="&#xe803;" d="M944-5l0 0c-2 1-2 0 0 0l0 0 0 0z m45 449c-3 0-7 0-9-2l0-386c0-25-15-48-36-60l0 0-2 0c-10-5-20-8-32-8l-39 0-686 0-40 0c-39 0-69 31-69 70l0 561c0 39 30 70 69 70l40 0 2 0 360 0c20 0 34 15 34 33 0 19-16 33-34 33l-429 0-32 0-5 0c-39 0-69-31-69-69l0-766c0-38 30-69 69-69l38 0 2 0 1 0 842 0c5 0 9 0 14 2 4-2 8-2 11-2 24 0 44 21 44 45l0 24 0 6 0 473c0 24-20 45-44 45l0 0z m-634 101c7 5 16 5 21-1l298-211c6-6 6-15-1-20l-293-191c-7-5-16-5-21 1l-4 422 0 0z m472 305c-109 0-197-88-197-197 0-109 88-198 197-198 109 0 197 89 197 198 0 109-88 197-197 197l0 0z m119-227c-6-1-16-4-18-9-2-5 2-14 5-20 13-17 13-21-3-38-16-16-22-16-38-3-5 3-15 7-20 5-5-3-10-13-10-19-2-20-11-24-27-22-23 0-29 4-31 22-1 7-5 17-10 19-5 2-16-3-22-7-16-10-21-10-39 7-11 11-14 22-2 36 4 5 9 15 6 19-2 5-13 9-19 10-19 3-23 7-23 31 0 20 4 26 23 28 6 1 17 5 18 9 3 5-1 14-5 21-13 16-13 21 2 35 17 17 22 17 40 6 5-4 16-8 21-6 5 3 9 12 9 18 2 20 6 24 32 24 16 0 25-6 25-24 0-6 5-16 9-18 7-2 14 4 22 6 8 2 18 9 23 6 12-6 19-18 30-28-7-8-11-13-14-19-3-7-8-15-6-20 3-5 12-9 18-10 20-2 23-6 23-29 4-23 0-27-19-30l0 0z" horiz-adv-x="1038" />

<glyph glyph-name="eventoprod" unicode="&#xe804;" d="M517-39l-11 23-69-30-121 442 171 380c-107 70-191 68-191 68l-46-210-54 194c0 0-97 3-193-70l192-373-95-426 16-6 140 312 164-319-49-22 11-28c0 0 24-64 102-23 70 36 33 88 33 88l0 0z m-483 0c0 0-37-52 33-89 77-40 102 23 102 23l11 29-134 59-12-22 0 0z" horiz-adv-x="527" />

<glyph glyph-name="experiencialmkt" unicode="&#xe806;" d="M0 322l0 56c153 157 321 293 523 383 171 74 345 102 528 64 283-60 504-224 702-422 41-40 28-78-8-115-141-140-296-259-477-342-200-90-404-115-615-53-259 78-466 238-653 429l0 0z m619 317c-170-61-313-163-440-287 134-138 353-279 442-283-172 156-193 383-2 570l0 0z m541-2c80-78 136-168 136-287 0-119-58-208-136-289 170 59 312 164 444 289-136 126-274 228-444 287l0 0z m-447-304c79 0 140 60 140 140 0 79-61 141-140 141-77 0-143-66-143-141 0-76 66-140 143-140l0 0z" horiz-adv-x="1787" />

<glyph glyph-name="expomng" unicode="&#xe807;" d="M341 501l0-58c0-6-2-10-7-14-74-55-119-128-132-219-14-102 12-193 77-273 16-18 34-35 50-53-6-15-28-31-49-31l-117 0c-33 0-60 30-60 66-1 48 0 95 0 143l0 132-22 0c-43 1-80 35-80 79-1 78-1 157 0 235 1 46 25 80 63 91 1 0 1 1 2 1 29 8 35 5 48-21 12-25 25-49 37-74 1-3 3-6 6-10 11 14 20 28 30 42-13 12-16 28-16 44 0 11 5 19 16 20 11 1 22 2 33 1 13-1 19-9 18-22 0-15-5-31-16-42 9-14 20-29 29-43 8 15 15 29 22 44 9 19 20 38 29 58 2 5 5 7 12 7l282 0c24 0 44-16 50-39 5-22-6-46-27-57-7-3-17-5-25-5l-240 0c-4-2-8-2-13-2l0 0z m204-648c-166 0-302 132-306 299-5 174 134 311 299 314 171 3 310-133 313-299 3-175-131-312-306-314l0 0z m1 75c127 0 231 105 231 232 0 129-105 233-233 233-128 0-232-105-232-234 2-128 106-232 234-231l0 0z m-240 812c1-55-46-102-98-102-58-1-105 43-106 101-1 56 45 103 101 103 56 1 102-45 103-102l0 0z m206-546l0 132c0 22 13 38 33 38 21 0 34-15 34-38l0-167c0-18-14-33-34-33l-100 0c-20 0-36 15-36 33 0 20 15 35 36 35l67 0 0 0z m170 0c19 0 34-16 34-35 0-17-16-33-35-33-18 0-33 16-33 34 0 19 15 34 34 34l0 0z m-136-137c19 0 33-15 33-34 0-18-16-33-34-33-18 0-33 16-33 34 0 20 15 33 34 33l0 0z" horiz-adv-x="854" />

<glyph glyph-name="fabrication" unicode="&#xe808;" d="M707 268c-37 38-81 49-130 33-12-3-20-2-27 3l1 1-308 308c0 0 7 59-55 105l-117 75c0 0-23 11-45-8l-17-15c0 0-18-21 0-47 17-25 76-121 76-121 0 0 26-52 114-37l62-65 0 0 0 0 74-77c53-55 104-111 158-164 11-11 13-21 8-36-14-49-6-92 31-129 67-67 133-136 201-201 52-52 129-49 178 2 46 49 45 125-5 175-67 68-133 132-199 198l0 0z m-278-45c-37 40-75 79-114 120-8-8-11-10-14-12-86-87-174-174-261-260-50-50-50-128-1-177 49-50 126-50 176 0 66 64 129 132 195 195 18 18 25 35 22 62-3 17 2 36 2 53 0 7-1 16-5 19l0 0z m-302-300c-32 0-59 28-57 60 1 30 26 57 57 57 30 0 60-28 60-58 0-32-28-59-60-59l0 0z m452 448c56 18 126-8 126-8 135-26 201 70 201 70 107 132 49 248 49 248l-133-136c-71-46-128 7-128 7-73 82 0 152 0 152l116 119c-103 47-209-27-209-27-139-102-96-250-96-250l-50-47 124-128 0 0z" horiz-adv-x="976" />

<glyph glyph-name="global" unicode="&#xe80a;" d="M636 695l1 1c-83 90-165 137-166 138-3 2-7 6-7 10-97-7-186-41-259-96 2-4 3-8 2-13 0-1-5-17-10-44 6-2 12-6 18-11 167 59 309 49 421 15l0 0z m-467-2c2 11 5 21 7 29-33-29-63-63-87-100l34 18c-1 27 20 49 46 53l0 0z m90-538c-12 17-23 35-33 55-71 135-79 276-71 379-11 5-20 14-26 25-16-8-32-16-48-25-5-2-10-2-14 0-38-70-60-150-60-237 0-82 21-161 56-230 3 2 6 3 9 2 2 0 73-14 171-6-2 14 5 26 16 37l0 0z m470 503c8-5 17-8 24-13 15-8 29-16 42-24 8 32 14 67 19 103 0 2 1 4 3 7-85 71-194 113-312 114 31-20 95-65 158-135 4 1 8 1 12 1 28 0 53-24 54-53l0 0z m-482-569c-23-2-45-2-64-2-50 0-88 4-105 8 86-143 244-238 423-238 52 0 102 8 150 23-134 44-242 107-322 190-9-7-20-11-32-11-22 0-41 12-50 30l0 0z m738 362c-21 101-72 191-145 259-4-37-11-73-19-106 82-57 138-119 164-153l0 0z m-225-18c-46-96-109-173-190-230-71-52-148-81-219-98-2-6-3-10-5-16 82-84 192-147 330-191 5-1 7-4 8-8 3 1 7 2 9 4-1 3-1 8 1 12 106 188 137 366 91 529-7-2-14-4-22-4 0 1-2 2-3 2l0 0z m-36 196c19-26 35-55 50-87 5 16 10 32 15 49-15 11-33 20-50 29-4 5-9 7-15 9l0 0z m-106 26c0 5 2 11 3 16-126 38-257 33-392-15 2-6 3-12 3-17 0-29-22-53-50-56-7-100 1-234 67-362 11-18 21-36 33-54 4 1 9 3 13 3 25 0 44-15 52-37 68 16 140 43 207 92 75 54 135 126 178 216-15 10-24 26-24 46 0 24 15 45 37 52-13 25-27 48-40 70-10-6-20-10-31-10-30 0-56 26-56 56l0 0z m374-246l-1 0c-5 0-9 2-12 5-1 2-59 87-166 162-5-16-10-31-14-45 13-11 21-26 21-43 0-13-5-24-12-33 1-4 2-7 4-11 46-166 18-346-84-533 158 83 267 248 267 439 0 20-1 39-3 59l0 0z" horiz-adv-x="1000" />

<glyph glyph-name="graphics" unicode="&#xe80b;" d="M784 371l200 0c29 0 39 13 38 42-14 222-206 416-427 434-38 3-48-6-48-46l0-382c0-39 8-47 48-47 62-1 125-1 189-1l0 0z m-782 14c15 70 33 138 72 199 87 133 210 208 368 225 31 4 38-16 38-42 0-117 4-234-1-352-2-59 15-101 59-142 85-78 164-161 246-243 30-31 30-44-4-71-281-229-710-64-771 296-1 7-4 15-7 22l0 108 0 0z m1084-135c-23-63-44-127-70-188-8-21-25-40-39-58-16-21-36-27-57-5-85 85-171 171-256 257-8 8-12 25-8 36 2 8 18 16 29 16 122 1 244 1 366 0 12 0 23-10 36-15-1-16-1-30-1-43l0 0z m-302 121l-190 0c-39 0-49 8-49 46l0 383c0 38 11 48 49 45 222-16 413-211 427-433 2-29-9-42-38-42-67 1-133 1-199 1l0 0z" horiz-adv-x="1093" />

<glyph glyph-name="group" unicode="&#xe80c;" d="M558-35c0 3-3 5-5 5l-478 0c-2 0-4-2-4-5 0-54 27-80 49-93 25-13 49-14 54-14l0 5 0 0 0-5 271 0c35 0 62 11 82 31 31 30 31 74 31 76l0 0z m-411 28c21-15 73-34 122 5l2 1c1 2 40 39 86 2 22-19 45-26 67-26 30 0 57 14 71 26 3 1 45 40 93-4 7-7 19-6 25 1 7 7 6 19-1 25-59 52-118 25-141 4-3-2-46-39-93 0-56 45-111 18-133-3-40-31-78-5-79-3-68 54-134 23-159-2-7-7-7-17 0-24 7-7 18-7 25 0 3 2 53 48 115-2l0 0z m-99 71l533 0c20 0 38 17 38 38 0 21-17 37-38 37l-533 0c-20 0-37-16-37-37 1-21 17-38 37-38l0 0z m21 92l492 0c3 0 5 2 5 5l0 33 0 1c-31 115-231 121-240 122-239 0-260-120-260-126l0-30c-1-4 1-5 3-5l0 0z m900 672c-4 9-11 11-17 11-10 0-18-5-18-5l0 0-227-125c-1-1-2-2-2-4l-17-90-302 0 0 0c-1 0-2 0-4-1-1-2-1-3-1-4l13-286c0-2 3-3 5-5 1 0 90-5 158-78 0 0 23-25 24-82 0-2 1-3 4-4 0 0 46-12 49-52 0-1 4-26-32-47-1-1-2-2-2-5 0-1 1-3 2-3 2 0 30-13 31-41 0-2 0-30-48-31-1 0-3-1-4-1-1-2-1-3-1-4 0-1 12-72-62-107-3-1-3-3-3-5 0-2 3-3 5-3l232 0c2 0 5 2 5 5l30 750c0 1 0 3-1 4-1 1-2 1-4 1l-48 0 12 61 219 119c0 0 6 2 8 9 2 7 1 14-4 23l0 0z m-270-354l23 101 16 0 0-101-39 0 0 0z m-26 101l-18-101-223 0-3 101 244 0 0 0z" horiz-adv-x="976" />

<glyph glyph-name="keynote" unicode="&#xe80e;" d="M98 351l672 0c32 0 58 26 58 58l0 247c0 32-26 58-58 58l-613 0 0 75 128 0 2 0c5-16 19-28 36-28l82 0c21 0 38 17 38 38l0 10c0 21-17 38-38 38l-82 0c-17 0-32-12-36-28l-2 0-137 0-4 0-10 0c-5 0-9-4-9-9l0-97-29 0c-32 0-58-26-58-58l0-247c2-31 28-57 60-57l0 0z m-92-17c0-26 26-47 58-47l740 0c32 0 58 21 58 47l-856 0 0 0z m610-439l-162 0 0 363-40 0 0-363-154 0c-11 0-21-9-21-21 0-11 9-21 21-21l356 0c11 0 21 9 21 21 0 11-10 21-21 21l0 0z" horiz-adv-x="870" />

<glyph glyph-name="logistics" unicode="&#xe810;" d="M1003 378c-12-46-19-94-37-137-43-103-119-177-221-224-3-1-6-3-10-4-1 0-3 0-6 1 0 15-1 32 1 47 1 7 10 13 16 18 30 21 61 41 91 61-1 2-1 5-2 8-20 9-39 16-60 25-15-28-29-55-43-83-11 33-33 61 5 94-30 6-55 6-75 14-20 9-38 27-55 41 1 2 2 6 3 8 44-7 88-12 138-19 8 53 17 107 26 163l-183 0 0-130c-28 19-51 35-44 73 4 17 1 36 1 57l-179 0 0-32-39 0c-1 11-4 22-5 33l-132 0c2-11 2-21 3-33l-56 0c-10 72-1 143 25 211 117 298 497 373 720 143 66-68 104-151 116-244 1-6 3-11 5-17-3-24-3-49-3-74l0 0z m-412 60l183 0c-9 56-18 110-26 163-56-8-106-15-157-21 0-48 0-95 0-142l0 0z m-45 141c-53 6-102 14-157 21-9-55-16-108-25-164l182 0c0 49 0 95 0 143l0 0z m269-186c-8-61-17-119-27-179 24-10 51-21 78-33 47 62 75 132 79 211-45 1-87 1-130 1l0 0z m-26 222c9-61 18-119 26-178l130 0c-4 80-32 149-79 211-27-12-54-23-77-33l0 0z m-467-178c9 60 18 119 26 178-24 10-50 21-77 33-48-63-74-132-80-211l131 0 0 0z m269 359l0-173c48 6 91 12 140 17-24 56-50 105-97 138-12 8-26 12-43 18l0 0z m-182-156c46-5 91-11 138-17l0 155c0 4-1 8-1 12-48 3-115-70-137-150l0 0z m12 121c-1 2-2 3-3 6-40-27-78-53-118-80 1-2 2-4 3-6 20-9 41-17 61-25 18 36 37 70 57 105l0 0z m416-80c-36 37-74 62-120 81 19-37 38-71 58-108 20 9 39 17 62 27l0 0z m-834-388c10 19 27 23 47 23 112-1 225 0 337 0 54 0 56-2 61-58 19 0 38 2 56-1 15-3 31-7 42-17 42-38 82-80 122-120 17-16 19-35 16-59l-682 0c1 78 1 155 1 232l0 0z m617-179c1 2 1 4 2 6-34 32-68 66-103 97-6 6-19 6-28 2-4-1-6-13-7-21-2-23-2-46 0-69 0-5 5-16 8-16 44 0 86 1 128 1l0 0z m-617-69l682 0c0-28 1-53 0-79-1-16-15-25-31-27-11-1-22 0-35 0-13 47-43 77-95 77-42 0-70-26-88-77l-167 0c-4 0-10 7-12 12-16 41-47 65-86 65-39 1-71-23-87-66-3-4-5-10-9-11-22-9-56 2-72 21l0 85 0 0z m168-187c-37-1-68 28-69 66-1 37 30 69 68 69 38 0 69-30 69-67 1-36-30-68-68-68l0 0z m-2 33c19 0 34 14 35 33 2 18-13 35-31 36-19 1-37-14-37-34 0-19 16-35 33-35l0 0z m291 35c0 38 30 67 69 67 38 0 67-30 67-68 0-39-30-67-68-67-38 0-68 29-68 68l0 0z m103-1c0 18-18 35-37 34-17-1-34-17-34-34 0-19 18-35 37-34 18 0 34 16 34 34l0 0z" horiz-adv-x="1011" />

<glyph glyph-name="planning" unicode="&#xe811;" d="M1-77l0 760c19 51 56 68 108 66 35-3 70 0 108 0 0 17 2 33 0 48-1 20 5 33 21 44l18 0c17-8 23-23 22-43-1-16 0-32 0-48l186 0c0 16 1 31 0 46-1 18 3 34 19 45l22 0c33-23 11-60 21-91l184 0c0 17 1 35 0 51-1 18 6 32 22 40l17 0c16-11 23-26 21-44-1-16 0-31 0-48 39 0 74-1 109 0 52 4 89-15 107-66l0-760c-11-32-33-55-65-66l-852 0c-34 11-55 34-68 66l0 0z m279 764c-1-4-2-5-2-6l0-48c0-25-11-37-30-37-18 0-28 12-29 36l0 55-125 0c-25 0-30-6-30-31l0-707c0-25 6-30 30-30l802 0c25 0 30 5 30 31l0 706c0 5 1 10 0 13-5 7-11 18-17 18-45 1-90 1-136 1l0-59c-1-21-12-33-31-32-17 0-28 12-30 33l0 57-186 0 0-36c0-42-7-54-30-54-22 0-28 14-28 53l0 37c-67 0-127 0-188 0l0 0z m369-613l0 88 120 0c0-26 1-51 0-76 0-5-8-11-12-12-36-2-71 0-108 0l0 0z m-312 88l0-88-110 0c-3 0-10 6-10 9-1 26 0 52 0 79 42 0 81 0 120 0l0 0z m98-87l0 87 117 0 0-87-117 0 0 0z m214 242l119 0 0-88-119 0 0 88 0 0z m-312-2l0-86-118 0 0 86 118 0 0 0z m312 68l0 87 119 0 0-87-119 0 0 0z m-312 87l0-87-118 0 0 87 118 0 0 0z m98-241l0 86 117 0 0-86-117 0 0 0z m0 241l117 0 0-87-117 0 0 87 0 0z" horiz-adv-x="988" />

<glyph glyph-name="pressevents" unicode="&#xe812;" d="M220 145l27 0c81 0 148 67 148 148l0 406c0 81-67 148-148 148l-27 0c-82 0-148-67-148-148l0-406c0-81 66-148 148-148l0 0z m-125 553c0 81 63 124 138 124 76 0 139-43 139-124l0-186-277 0 0 186 0 0z m171-629c67 4 119 25 153 64 50 55 45 126 45 135l0 250-35 0 0-251 0-2c0-1 6-63-35-111-31-34-82-52-150-52-203 0-210 137-210 142l0 273-34 0 0-274c0-2 7-156 205-174l0-153-188 0 0-62 441 0 0 62-191 0 0 153-1 0z" horiz-adv-x="465" />

<glyph glyph-name="procure" unicode="&#xe813;" d="M1303 482l-82 146c0 0-50 82-139 82l-247 0c0 0-38-7-38-58l2-400-740 0c0 0-50 5-50-48l0-133c0 0 0-52 56-52l148 0c0 0 16-165 180-165 163 0 185 168 185 168l262 0c0 0 13-168 200-168 0 0 163 0 163 168l126 0c0 0 71 6 71 106l0 156c0-2 0 90-97 198l0 0z m-910-513c-40 0-72 33-72 72 0 40 32 72 72 72 39 0 72-32 72-72 0-39-33-72-72-72l0 0z m628 0c-40 0-72 33-72 72 0 40 32 72 72 72 39 0 72-32 72-72 0-39-33-72-72-72l0 0z m-102 421l0 251 135 0c0 0 52 8 100-66 49-73 90-159 90-185l-325 0 0 0z m-800 226l197 0c27 0 47 21 47 47l0 133c0 26-20 47-47 47l-197 0c-26 0-47-21-47-47l0-133c0-26 21-47 47-47l0 0z m352 0l197 0c26 0 47 21 47 47l0 133c0 26-21 47-47 47l-197 0c-27 0-47-21-47-47l0-133c0-26 20-47 47-47l0 0z m-352-294l197 0c27 0 47 21 47 47l0 133c0 26-20 47-47 47l-197 0c-26 0-47-21-47-47l0-133c0-26 21-47 47-47l0 0z m352 0l197 0c26 0 47 21 47 47l0 133c0 26-21 47-47 47l-197 0c-27 0-47-21-47-47l0-133c0-26 20-47 47-47l0 0z" horiz-adv-x="1412" />

<glyph glyph-name="projectmanagement" unicode="&#xe814;" d="M103-53l0 708c25 0 50 1 73 0 6 0 14-6 16-13 13-28 34-41 64-41l197 0c29 0 50 13 62 40 3 6 11 13 16 14 20 1 41 1 65 1l0-74c1-32 19-51 48-51 29 0 48 19 50 52 1 34 1 67 0 102-2 42-27 68-70 69-50 1-101 0-151 0-10 0-20 1-29 1-14 60-43 90-88 92-52 4-78-19-106-93l-169 0c-55 0-78-22-78-77l0-749c0-54 24-77 77-77l532 0c61 0 89 35 78 99-194-3-390-3-587-3l0 0z m246 850c24 0 45-20 45-43 0-24-21-44-45-44-23 0-43 20-43 44 0 23 20 42 43 43l0 0z m292-312c-132-2-241-109-241-241 0-136 108-245 242-245 135 0 243 107 243 242 0 135-109 244-244 244l0 0z m117-161c-35-70-71-141-107-211-15-31-45-33-68-7-21 27-42 54-62 81-15 19-12 43 5 55 18 14 38 11 55-9 9-10 16-21 28-36 28 56 54 108 81 161 9 16 23 28 40 22 12-4 23-17 30-29 5-5 3-19-2-27l0 0z m-457-137l0 116-114 0 0-116 114 0 0 0z m-83 84l51 0 0-53-51 0 0 53 0 0z m83 203l-115 0 0-111 115 0 0 111 0 0z m-32-83l-50 0c-7 64-7 59 50 54l0-54 0 0z m-83-378l115 0 0 111-115 0 0-111 0 0z m32 81c58 6 58 9 50-54l-24 0-26 0 0 54 0 0z" horiz-adv-x="885" />

<glyph glyph-name="registration" unicode="&#xe815;" d="M52-147c-31 17-43 43-43 79 1 115 2 228 0 343-2 75 17 146 33 218 9 39 18 77 28 117 9 34 33 58 63 58 32 0 57-16 70-46 12-25 25-51 31-78 11-50 47-67 93-78-12 27-22 50-34 75 5 2 9 3 13 6 27-51 54-103 82-153-92-17-161 9-214 84-14-94-54-183-50-280 3-86 0-173 1-259 1-36-8-64-38-85-11-1-23-1-35-1l0 0z m160 988c51-26 70-56 60-98-9-36-38-60-75-61-37-2-68 22-79 60-9 32 6 69 37 87 7 4 15 8 21 12l36 0 0 0z m531 0c37-16 64-39 63-84-1-37-23-65-59-73-38-9-75 8-91 40-17 34-8 75 20 98 9 8 21 13 31 20 11-1 23-1 36-1l0 0z m76-299c14-48 25-92 37-138l-259 0c12 46 24 91 37 136-4 2-7 4-10 7-7-8-18-14-22-23-10-29-20-58-26-89-5-28-19-38-47-32-9 1-18 0-32 0 21 70 39 138 64 202 14 38 50 55 92 56 48 0 96 1 145 0 45-1 81-21 96-64 23-63 40-127 60-193l-66 0c-16 45-32 92-49 138 0 2-10 0-20 0l0 0z m-479-390c-13 14-24 25-30 31 45 48 90 95 132 143 25 30 55 39 93 38 127-3 255-2 382-2l39 0 0-57c-9 0-20-1-31-1-128 0-258 1-386-1-20 0-43-10-59-24-47-39-91-82-140-127l0 0z m-47 112c50 46 100 93 151 140 7-7 12-11 21-19-49-46-98-92-147-136-4-3-17 2-26 3 1 5 1 8 1 12l0 0z" horiz-adv-x="966" />

<glyph glyph-name="security" unicode="&#xe816;" d="M436 849l22 0c9-5 19-9 28-13 109-39 219-79 328-119 70-25 64-15 69-87 10-136 7-271-33-402-43-140-120-255-253-322-42-21-90-32-134-47l-30 0c-3 1-5 4-9 4-88 15-163 53-227 114-118 109-164 251-182 406-10 93-7 186 0 279 2 23 12 37 34 45 87 30 174 63 262 94 41 15 83 32 125 48l0 0z m392-325c-1 31-4 69-6 107-1 12-5 19-17 24-114 40-228 82-342 123-8 3-19 3-27 1-115-41-230-82-344-125-7-3-15-13-16-21-4-26-5-52-5-77-5-122 5-243 51-358 54-135 145-232 290-271 25-7 50-7 75 0 135 36 225 124 280 249 47 109 59 224 61 348l0 0z m-507-91l0 84c0 62 36 98 99 98l64 0c50-1 88-39 89-89 1-32 0-63 0-95 49-7 60-18 60-66l0-158c0-38-17-55-55-55l-262 0c-38 0-53 17-54 56l0 158c1 48 10 60 59 67l0 0z m63 0l129 0 0 93c0 18-12 28-29 29-23 1-47 1-70 0-16 0-28-10-29-27-2-31-1-63-1-95l0 0z m83-175c2 18-3 36 13 54 13 12 6 37-9 49-15 12-37 11-51-4-13-13-14-34-4-50 6-9 10-21 12-33 2-12 1-26 0-39-1-15 5-21 20-21 15 0 21 6 19 21-1 8 0 15 0 23l0 0z" horiz-adv-x="895" />

<glyph glyph-name="signage" unicode="&#xe817;" d="M985 509c-12-10-22-23-34-32-65-50-131-100-197-148-13-9-32-16-48-16-219-1-436 0-655-1-24 0-42 7-51 31l0 355c9 23 28 31 52 30 76-1 152 0 227 0l25 0c0 22 1 41 0 59-2 25 5 44 29 55l91 0c24-11 31-28 30-52-2-20 0-40 0-62 86 0 167 1 250-1 16 0 36-7 50-16 67-49 134-100 201-150 11-10 19-23 30-34 0-6 0-12 0-18l0 0z m-652-652c-24 10-31 29-29 52l0 313c0 39 12 50 51 51l52 0c33 0 47-12 47-46l0-129c0-63-2-126 0-189 0-24-6-43-31-52-29 0-60 0-90 0l0 0z" horiz-adv-x="988" />

<glyph glyph-name="sponosorship" unicode="&#xe819;" d="M356 643c11 23 36 71 36 71l176-8c0 0 27 3 57 19 0 0 67 58 203 16l163-32c0 0 14 0 26-27l163-328c0 0 19-53-15-75 0 0-4-16 11-38 15-23 39-78-11-122 0 0-18-30-73-28 0 0 4-96-112-101 0 0-4-108-143-59 0 0-66-74-145-30 0 0-20-47-73-39 0 0-51-3-43 73 0 0-28-42-85-26 0 0-54 12-36 86 0 0-40-22-86-2 0 0-42 14-28 77 0 0-70-28-96 11 0 0-44 40 12 113l23 27-3 26c0 0-74 82-70 87 4 7 30 55 30 55l90-108c0 0 97 16 96-98 0 0 100 4 105-100 0 0 83 7 97-69l96-73c0 0 36-22 55-2 0 0 25 23-7 44l-100 71c0 0-18 11-2 37 0 0 18 22 46-4l156-114c0 0 32-19 56 8 0 0 28 26-10 53-38 28-191 137-191 137 0 0-19 14 1 36 19 23 44 0 44 0l210-157c0 0 33-20 58 11 26 32-21 60-21 60l-233 162c0 0-22 15-7 38 15 22 44-2 44-2l251-177c0 0 37-15 61 19 24 34-35 78-35 78l-350 308c0 0-70 48-112-36-43-82-64-134-130-133-65 1-88 28-70 87 0 0 18 25 22 66 4 42 35 108 35 108l-136 0 0 4z m888-290l-201 393c-11 20-3 44 17 53l71 36c20 11 44 3 53-17l201-393c11-20 3-44-17-54l-71-36c-18-9-42-1-53 18l0 0z m-895 386l-198-394c-10-20-35-28-54-18l-70 36c-20 10-28 35-18 54l199 394c9 20 35 28 53 18l71-36c20-11 28-35 17-54l0 0z" horiz-adv-x="1400" />

<glyph glyph-name="strategy" unicode="&#xe81a;" d="M525 21c-51 55-60 87-60 87 30 29-23 35-23 35 23 13 0 25 0 25-89 131-91 327-91 327 135 47 107 202 107 202-30 151-164 146-180 145-18 1-152 5-180-145 0 0-30-155 107-202 0 0-3-196-92-327 0 0-22-11 0-25 0 0-53-7-22-35 0 0-10-31-60-87 0 0-51-19 9-91 0 0-47-58 13-80l224 0 3 0 224 0c60 22 13 80 13 80 60 72 8 91 8 91l0 0z m-387 609c-18 212 160 169 160 169l-160-169 0 0z" horiz-adv-x="553" />

<glyph glyph-name="tradeshowdesign" unicode="&#xe81b;" d="M583 371l0 462c0 0-470 83-575-224l0-711c0 0 101 199 323 254l0-211 83-88 0 283-88 109 257 126z m3-18l-231-113 73-87 275 133-117 67z m125-84l-275-137 0-279 275 165 0 251z" horiz-adv-x="717" />

<glyph glyph-name="tradeshows" unicode="&#xe81c;" d="M967 842c0 0-243-159-717-137 0 0-68 19-64-34 0 0 17-224 13-413l-175 0c-7 0-14-7-14-14l0-88c0-7 7-14 14-14l15 0 0-270c0-11 8-19 19-19l22 0c10 0 19 8 19 19l0 270 93 0c-1-21-3-41-6-59 0 0-21-59 31-55 0 0 45 4 119 2l0-40 3 0c-13 0-25-11-25-25 0-14 10-24 25-24l80 0c13 0 25 10 25 24 0 14-11 25-25 25l-1 0 0 34c31-2 64-5 100-10l0-142c0-11 9-19 19-19l22 0c10 0 19 8 19 19l0 132c55-9 116-22 177-39l0-41-15 4c-12 3-23-5-26-17l0 0c-2-11 5-23 17-25l86-21c11-2 23 5 25 17 3 12-5 23-16 26l-11 2 0 37c44-14 89-29 135-48 0 0 63-48 59 45 0 0-40 587 0 834 1 2 26 90-42 64l0 0z m-731-765c3 13 5 36 6 64l276 0 0-76c-162 18-282 12-282 12l0 0z m723-131c-123 59-260 93-381 110l0 85 4 0c8 0 14 6 14 14l0 87c0 8-6 14-14 14l-338 0c0 175-9 403-9 403 420-31 723 118 723 118-40-155 1-831 1-831l0 0z m-146 650c-144-60-441-49-444-49-11 0-22-8-22-20 0-12 9-22 21-22 4 0 28-1 64-1 99 0 287 6 398 52 10 4 15 17 11 27-5 13-17 18-28 13l0 0z m-342-195c74 0 188 5 288 35 5 1 9 8 6 13-1 5-7 9-12 6-157-46-356-32-358-32-6 0-10-4-12-10 0-5 4-10 11-12 1 3 30 0 77 0l0 0z m285-24c-156-46-355-32-357-32-7 0-10-4-12-10 0-5 4-11 10-12 2 0 31-2 77-2 75 0 189 5 289 34 5 1 9 8 6 13-1 8-7 10-13 9l0 0z" horiz-adv-x="1026" />

<glyph glyph-name="travelmanagement" unicode="&#xe81d;" d="M1447 647c-25-47-73-70-116-97-13-8-27-26-30-40-15-77-27-154-42-230-3-15-9-34-19-41-30-18-44-9-50 26-12 68-23 138-35 209-31-10-60-19-88-29-8-3-13-14-16-23-9-19-16-40-23-60-6-23-23-29-50-27 13 84-16 151-88 196 15 25 32 31 54 20 1-1 3-1 6-2 83-32 85-32 160 25-45 56-89 109-133 165-8 10-28 19-10 35 15 15 29 30 55 13 68-43 137-83 205-125 20-13 37-17 62-7 30 13 65 22 98 26 19 2 40-10 60-16 0-5 0-11 0-18l0 0z m-84 18c-3-2-5-5-9-7 8-18 15-35 22-53 10 9 18 23 14 31-4 11-18 19-27 29l0 0z m-1362-410c12 22 21 44 34 64 10 17 24 32 42 46-4-7-8-15-10-23-30-60-7-100 60-100 50 0 100 5 149 17 188 41 365 114 538 197 13 7 33 17 40 12 19-15 33-37 49-56 1-2 0-4 0-7 9-68 10-69-53-95-197-82-399-148-614-159-46-2-94 3-140 9-42 7-77 27-92 70-3 9-3 17-3 25l0 0z m963 378c-52 14-91-6-125-38-7-6-24-9-33-5-29 13-53 33-53 72 0 6-3 15-7 20-19 22-23 44 8 64-1 3-4 5-5 8-36 4-73 10-109 11-28 0-58-48-48-74 11-26 25-49 43-83-5-19-45-52 7-84-56-47-97-109-177-111-6 0-18-4-19-8-9-46-52-29-78-45-3-1-12 5-17 9-15 14-29 32-46 43-28 16-42 35-38 69 1 14 0 29 0 55-9-13-16-18-17-23-11-51-27-104-31-157-2-30-11-39-38-38l-39 0c-10 53-1 103 12 151 74 308 418 467 701 325 16-8 26-17 30-38 4-19 16-38 28-56 15-24 34-45 51-67l0 0z m-445-684c4 46-33 90 7 132-9 10-20 20-31 34 61 18 118 38 177 49 19 4 43-14 63-24 6-4 11-23 7-27-29-32-23-92-82-101-5-2-13-11-13-12 11-30-11-44-34-64 101-8 184 23 260 73-8 22-14 41-20 62-12 35-23 70 25 93-14 13-24 21-33 31-14 15-17 29 6 40 25 10 49 21 73 32 8 2 20 4 27 1 67-17 111 0 154 60 1-37 12-75 3-110-49-195-222-340-422-360-182-18-328 48-444 187-7 9-12 18-21 32 50 6 91 15 128-30 43-52 105-80 170-98l0 0z" horiz-adv-x="1449" />

<glyph glyph-name="financial" unicode="&#xe81e;" d="M79-75l0 857-74 0 0-857 0-72 74 0 857 0 0 72-857 0z m712 40l81 0 0 640-81-95 0-545z m-134 0l82 0 0 480-44-43-38 43 0-480z m-141-3l80 0 0 484-80 44 0-528z m-131 3l82 0 0 457-82-87 0-370z m-137 0l80 0 0 306-80-92 0-214z m-131 0l82 0 0 162-82-88 0-74z m0 133l0 125 374 426 166-84 155 169-41 41 198 66-40-204-49 45-192-227-172 90-399-447z" horiz-adv-x="973" />

<glyph glyph-name="speaker" unicode="&#xe81f;" d="M625 388l-613 0c-5 0-9-4-9-8l0-56c0-4 4-9 9-9l55 0 0-4 40-436c0-9 8-17 17-17l393 0c9 0 17 8 17 17l36 436 0 4 55 0c5 0 9 5 9 9l0 56c0 5-3 8-9 8l0 0z m-306-322c-58 0-104 46-104 104 0 58 46 104 104 104 58 0 104-46 104-104 0-58-47-104-104-104z m51 404l-23 45c0 0-8 13 6 21 13 9 23 0 23 0l30-56 0-51 104 0 0 64c-3 38-30 71-30 71-42 45-108 18-108 18 0 0-25-8-38-13-14-5-32-4-56 7-24 12-53 12-53 12-92 0-99-92-99-92l0-67 244 0 0 41 0 0z m-51 171c58 0 104 46 104 104 0 57-46 104-104 104-58 0-104-47-104-104 0-58 46-104 104-104z" horiz-adv-x="642" />

<glyph glyph-name="liveprod" unicode="&#xe820;" d="M789-143l-650 0c-63 0-114 50-114 113l0 295c0 62 51 113 114 113l650 0c63 0 114-51 114-113l0-295c0-63-51-113-114-113z m-580 565c116 0 210 94 210 209 0 116-94 210-210 210-115 0-209-94-209-210 0-115 94-209 209-209z m486 0c115 0 209 94 209 209 0 116-94 210-209 210-116 0-210-94-210-210 0-115 94-209 210-209z m229-213l243 110 0-421-243 123 0 188z" horiz-adv-x="1173" />

<glyph glyph-name="corporateplanning" unicode="&#xe821;" d="M195 351l112 0 0-72c0-7 6-12 12-12l299 0c7 0 12 5 12 12l0 72 113 0c13 0 24 11 24 25l0 46c0 14-11 25-24 25l-91 0-53 163c0 0-19 62-131 62-112 0-131-66-131-66l-47-159-95 0c-14 0-25-11-25-25l0-46c-1-13 11-25 25-25l0 0z m391 96l-19 0 0 50 19-50 0 0z m-85 200l-25-36-26 36 51 0 0 0z m-25-46l25-38-11-115-28 0-11 116 25 37 0 0z m-93-102l0-51-15 0 15 51z m85 190c43 0 78 35 78 78 0 43-35 78-78 78-43 0-78-35-78-78 0-43 35-78 78-78z m-282-588c43 0 78 35 78 78 0 43-35 77-78 77-43 0-77-34-77-77 0-43 34-78 77-78z m306 0c42 0 77 35 77 78 0 43-35 77-77 77-43 0-78-34-78-77 0-43 35-78 78-78z m305 0c43 0 78 35 78 78 0 43-35 77-78 77-43 0-78-34-78-77 0-43 35-78 78-78z m130-68c0 0-20 63-131 63-112 0-131-66-131-66l-20-68-24 71c0 0-19 63-131 63-111 0-130-66-130-66l-21-68-23 71c0 0-19 63-131 63-112 0-131-66-131-66l-49-164-5-13 79 0 20 69 0-72 185 0 0 71 23-61 2 0 78 0 18 62 0-72 185 0 0 71 24-61 65 0 14 0 18 62 0-72 185 0 0 71 23-61 65 0-57 173z" horiz-adv-x="989" />

<glyph glyph-name="hotels" unicode="&#xe822;" d="M357 708l30 15 30-15-6 33 24 23-34 5-14 30-15-30-33-5 23-23-5-33z m122 0l43 22 45-22-8 48 35 35-49 7-23 45-21-45-49-7 35-35-8-48z m149 0l31 15 29-15-4 33 23 23-33 5-15 30-15-30-33-5 23-23-6-33z m111 0l26 13 24-13-4 27 21 20-28 4-13 26-13-26-28-4 20-20-5-27z m-484 0l26 13 25-13-5 27 21 20-28 4-13 26-13-26-28-4 20-20-5-27z m212-617l111 0 0-172 228 0 0 750-566 0 0-750 228 0 0 172-1 0z m179 496l83 0 0-84-83 0 0 84z m0-166l83 0 0-84-83 0 0 84z m0-165l83 0 0-84-83 0 0 84z m0-165l83 0 0-83-83 0 0 83z m-165 496l84 0 0-84-84 0 0 84z m0-166l84 0 0-84-84 0 0 84z m0-165l84 0 0-84-84 0 0 84z m-82-248l-84 0 0 83 84 0 0-83z m0 164l-84 0 0 84 84 0 0-84z m0 166l-84 0 0 84 84 0 0-84z m0 165l-84 0 0 84 84 0 0-84z m-210-602l668 0 0-42-668 0 0 42z m806 184c0 31-24 57-56 57-31 0-57-25-57-57-24-6-43-28-43-54 0-30 25-56 56-56 13 0 26 4 36 11l-13-127 42 0-13 127c10-7 21-11 35-11 31 0 57 24 57 56-1 26-19 48-44 54z m-833 0c0 31-24 57-56 57-31 0-57-25-57-57-24-6-43-28-43-54 0-30 25-56 56-56 13 0 26 4 36 11l-13-127 42 0-13 127c10-7 21-11 35-11 31 0 57 24 57 56 0 26-19 48-44 54z" horiz-adv-x="1047" />

<glyph glyph-name="execsupport" unicode="&#xe823;" d="M1029-141l-79 242c0 0-29 93-195 93-166 0-195-98-195-98l-70-237 539 0 0 0z m-97 0l-29 0 0 74 29-74 0 0z m-128 297l-37-54-37 54 74 0 0 0z m-37-69l37-57-15-171-43 0-16 172 37 56 0 0z m-648-100l-116 0 71 238c0 0 28 98 194 98 166 0 195-94 195-94l79-242-400 0 0 76-23-76z m510-51l0-77-23 0 23 77z m127 283c64 0 115 52 115 116 0 63-51 115-115 115-64 0-115-52-115-115 0-64 51-116 115-116z m-314 213l0 88c0 0-143 78-97 206 46 127 210 123 240 121 25-2 205-32 190-182 0 0-16-168-249-163l-84-70z m3-445l-28 0 0 75 28-75z m-127 296l-38-54-37 54 75 0z m-38-67l38-57-16-172-43 0-16 173 37 56z m-11 131c64 0 116 51 116 115 0 64-52 116-116 116-63 0-115-52-115-116 0-64 52-115 115-115z" horiz-adv-x="1033" />

<glyph glyph-name="spin6" unicode="&#xe839;" d="M855 9c-189-190-520-172-705 13-190 190-200 494-28 695 11 13 21 26 35 34 36 23 85 18 117-13 30-31 35-76 16-112-5-9-9-15-16-22-140-151-145-379-8-516 153-153 407-121 542 34 106 122 142 297 77 451-83 198-305 291-510 222l0 1c236 82 492-24 588-252 71-167 37-355-72-493-11-15-23-29-36-42z" horiz-adv-x="1000" />
</font>
</defs>
</svg>
